<svg id="_x33_0" enable-background="new 0 0 64 64" height="512" viewBox="0 0 64 64" width="512" xmlns="http://www.w3.org/2000/svg"><g><g><g><path d="m34 3v3.09l-2-.09-2 .09v-3.09c0-.55.45-1 1-1h2c.55 0 1 .45 1 1z" fill="#fc6e51"/></g><g><path d="m46.66 23.56-.66.44-.23-3.98c-.44-7.46-6.32-13.45-13.77-14.02l2 .09 3.75.16c10.08.44 18.5 7.82 20.25 17.75l-2.04-1.02c-1.29-.64-2.71-.98-4.15-.98-1.83 0-3.62.54-5.15 1.56z" fill="#ff826e"/></g><g><path d="m32 6v18l-1.32-.66c-1.76-.88-3.71-1.34-5.68-1.34s-3.92.46-5.68 1.34l-1.32.66.23-3.98c.44-7.46 6.32-13.45 13.77-14.02z" fill="#e6e9ed"/></g><g><path d="m32 6c7.45.57 13.33 6.56 13.77 14.02l.23 3.98-1.32-.66c-1.76-.88-3.71-1.34-5.68-1.34s-3.92.46-5.68 1.34l-1.32.66z" fill="#e6e9ed"/></g><g><path d="m30 6.09 2-.09c-7.45.57-13.33 6.56-13.77 14.02l-.23 3.98-.66-.44c-1.53-1.02-3.32-1.56-5.15-1.56-1.44 0-2.86.34-4.15.98l-2.04 1.02c.88-4.96 3.42-9.29 7-12.43 3.58-3.15 8.21-5.1 13.25-5.32z" fill="#ff826e"/></g><g><path d="m48 58c0-2.3.84-4.42 2.25-6.04 1.41-1.63 3.39-2.76 5.67-3.09l6.08-.87v.78c0 5.09-4.13 9.22-9.22 9.22z" fill="#a0d468"/></g><g><path d="m16 56c0-2.3.84-4.42 2.25-6.04 1.41-1.63 3.39-2.76 5.67-3.09l6.08-.87v.78c0 5.09-4.13 9.22-9.22 9.22z" fill="#a0d468"/></g><g><path d="m13.75 51.96c1.41 1.62 2.25 3.74 2.25 6.04h-4.78c-5.09 0-9.22-4.13-9.22-9.22v-.78l6.08.87c2.28.33 4.26 1.46 5.67 3.09z" fill="#b4dd7f"/></g><g><path d="m45.75 49.96c1.41 1.62 2.25 3.74 2.25 6.04h-4.78c-5.09 0-9.22-4.13-9.22-9.22v-.78l6.08.87c2.28.33 4.26 1.46 5.67 3.09z" fill="#b4dd7f"/></g><g><circle cx="16" cy="37" fill="#fcd770" r="10"/></g><g><circle cx="48" cy="37" fill="#fcd770" r="10"/></g></g><g><path d="m55.774 47.879c-2.787.398-5.191 1.927-6.774 4.076v-4.006c5.598-.507 10-5.221 10-10.949 0-6.065-4.935-11-11-11s-11 4.935-11 11c0 4.022 2.177 7.538 5.408 9.456-.695-.266-1.422-.468-2.183-.577l-7.225-1.032v1.934c0 5.634 4.585 10.219 10.22 10.219h3.78v1 1 2h-4v2h10v-2h-4v-2h3.78c5.635 0 10.22-4.585 10.22-10.22v-1.934zm-16.774-10.879c0-4.962 4.037-9 9-9s9 4.038 9 9c0 4.963-4.037 9-9 9s-9-4.037-9-9zm8 10.949v2.005c-.801-1.086-1.815-2.008-2.979-2.711.938.367 1.936.612 2.979.706zm-11.991-.795 4.934.705c2.975.424 5.407 2.449 6.474 5.119-1.185-.954-2.837-2.024-5.045-2.907l-.742 1.857c2.37.949 4.022 2.137 5.075 3.072h-2.485c-4.407 0-8.016-3.486-8.211-7.846zm17.771 9.846h-2.485c1.053-.936 2.705-2.123 5.076-3.071l-.742-1.857c-2.208.883-3.86 1.954-5.046 2.908 1.066-2.67 3.498-4.695 6.474-5.12l4.934-.705c-.195 4.359-3.803 7.845-8.211 7.845z"/><path d="m49 44v-2h2v-3c0-1.654-1.346-3-3-3-.552 0-1-.448-1-1v-1h1c.552 0 1 .448 1 1v1h2v-1c0-1.302-.839-2.402-2-2.816v-2.184h-2v2h-2v3c0 1.654 1.346 3 3 3 .552 0 1 .448 1 1v1h-1c-.552 0-1-.448-1-1v-1h-2v1c0 1.302.839 2.402 2 2.816v2.184z"/><path d="m31 44.847-7.226 1.032c-.76.109-1.488.311-2.183.577 3.232-1.918 5.409-5.434 5.409-9.456 0-6.065-4.935-11-11-11s-11 4.935-11 11c0 5.728 4.402 10.442 10 10.949v4.005c-1.584-2.148-3.987-3.677-6.774-4.076l-7.226-1.031v1.934c0 5.634 4.585 10.219 10.22 10.219h3.78v2h-4v2h10v-2h-4v-2.004-1-.996h3.78c5.635 0 10.22-4.585 10.22-10.22zm-11.02 2.396c-1.164.703-2.179 1.625-2.98 2.712v-2.006c1.043-.094 2.041-.339 2.98-.706zm-12.98-10.243c0-4.962 4.037-9 9-9s9 4.038 9 9c0 4.963-4.037 9-9 9s-9-4.037-9-9zm-3.991 12.154 4.934.705c2.975.424 5.407 2.449 6.474 5.119-1.185-.954-2.837-2.024-5.045-2.907l-.742 1.857c2.37.948 4.023 2.135 5.076 3.071h-2.486c-4.407.001-8.016-3.485-8.211-7.845zm17.771 5.846h-2.485c1.053-.936 2.705-2.123 5.076-3.071l-.742-1.857c-2.208.883-3.86 1.954-5.046 2.908 1.066-2.67 3.498-4.695 6.474-5.12l4.934-.705c-.195 4.359-3.803 7.845-8.211 7.845z"/><path d="m17 44v-2h2v-3c0-1.654-1.346-3-3-3-.552 0-1-.448-1-1v-1h1c.552 0 1 .448 1 1v1h2v-1c0-1.302-.839-2.402-2-2.816v-2.184h-2v2h-2v3c0 1.654 1.346 3 3 3 .552 0 1 .448 1 1v1h-1c-.552 0-1-.448-1-1v-1h-2v1c0 1.302.839 2.402 2 2.816v2.184z"/><path d="m25 57h2v2h-2z"/><path d="m29 57h8v2h-8z"/><path d="m16.783 24.391 1.145.763 1.836-.917c3.234-1.618 7.238-1.618 10.473 0l.763.381v17.382h2v-17.382l.764-.382c3.234-1.618 7.238-1.618 10.473 0l1.836.917 1.145-.763c2.43-1.618 5.685-1.822 8.295-.517l3.818 1.909-.346-1.957c-1.849-10.474-10.561-18.112-21.188-18.574l-2.797-.12v-2.131c0-1.103-.897-2-2-2h-2c-1.103 0-2 .897-2 2v2.129l-2.797.122c-10.627.462-19.339 8.1-21.188 18.575l-.345 1.957 3.818-1.909c2.611-1.305 5.866-1.102 8.295.517zm8.217-3.391c-2.034 0-4.065.473-5.901 1.349l.134-2.274c.385-6.56 5.364-11.943 11.767-12.945v15.261c-1.861-.906-3.93-1.391-6-1.391zm8 1.392v-15.262c6.403 1.001 11.382 6.385 11.768 12.944l.134 2.275c-3.704-1.762-8.212-1.751-11.902.043zm23.558-.231-.151-.076c-1.421-.71-3.01-1.085-4.597-1.085-1.73 0-3.403.456-4.909 1.278l-.137-2.321c-.311-5.295-3.245-9.913-7.515-12.581 8.293.971 15.071 6.779 17.309 14.785zm-25.558-19.161h2v2.046l-.883-.038c-.013-.001-.026-.004-.039-.005v.003l-.12-.005-.958.042zm-23.558 19.161c2.238-8.006 9.016-13.814 17.309-14.784-4.27 2.668-7.204 7.286-7.515 12.581l-.136 2.32c-1.507-.822-3.179-1.278-4.91-1.278-1.588 0-3.177.375-4.597 1.085z"/></g></g></svg>