<svg id="_x33_0" enable-background="new 0 0 64 64" height="512" viewBox="0 0 64 64" width="512" xmlns="http://www.w3.org/2000/svg"><g><g><g><circle cx="8" cy="26" fill="#b4dd7f" r="2"/></g><g><circle cx="8" cy="38" fill="#b4dd7f" r="2"/></g><g><circle cx="4" cy="32" fill="#b4dd7f" r="2"/></g><g><circle cx="26" cy="8" fill="#b4dd7f" r="2"/></g><g><circle cx="32" cy="4" fill="#b4dd7f" r="2"/></g><g><circle cx="38" cy="8" fill="#b4dd7f" r="2"/></g><g><circle cx="60" cy="32" fill="#b4dd7f" r="2"/></g><g><circle cx="56" cy="26" fill="#b4dd7f" r="2"/></g><g><circle cx="56" cy="38" fill="#b4dd7f" r="2"/></g><g><circle cx="38" cy="56" fill="#b4dd7f" r="2"/></g><g><circle cx="32" cy="60" fill="#b4dd7f" r="2"/></g><g><circle cx="26" cy="56" fill="#b4dd7f" r="2"/></g><g><path d="m10 42-8 4v4.58c0 4.55 2.57 8.7 6.63 10.74l1.37.68 1.37-.68c4.06-2.04 6.63-6.19 6.63-10.74v-4.58z" fill="#aab2bd"/></g><g><path d="m61.49 49.59c.32.26.51.65.51 1.06 0 .75-.6 1.35-1.35 1.35h-.65-16-.65c-.75 0-1.35-.6-1.35-1.35 0-.41.19-.8.51-1.06l3.93-3.15 5.56-4.44z" fill="#cf9e76"/></g><g><path d="m60 52v10h-6v-6h-4v6h-6v-10z" fill="#e6e9ed"/></g><g><path d="m50 56h4v6h-4z" fill="#b27946"/></g><g><path d="m14.71 14.71-3.71 3.29-6.94-6.17c-1.31-1.16-2.06-2.83-2.06-4.59 0-1.43.57-2.81 1.59-3.83.9-.9 2.13-1.41 3.41-1.41s2.51.51 3.41 1.41l.59.59.59-.59c.9-.9 2.13-1.41 3.41-1.41s2.51.51 3.41 1.41c1.02 1.02 1.59 2.4 1.59 3.83 0 1.76-.75 3.43-2.06 4.59z" fill="#ff826e"/></g><g><path d="m54 2c4.42 0 8 3.58 8 8s-3.58 8-8 8c-2.21 0-4.21-.9-5.66-2.34-1.44-1.45-2.34-3.45-2.34-5.66 0-4.42 3.58-8 8-8z" fill="#ff826e"/></g><g><path d="m58 9v2c0 .55-.45 1-1 1h-1v1c0 .55-.45 1-1 1h-2c-.55 0-1-.45-1-1v-1h-1c-.55 0-1-.45-1-1v-2c0-.55.45-1 1-1h1v-1c0-.55.45-1 1-1h2c.55 0 1 .45 1 1v1h1c.55 0 1 .45 1 1z" fill="#e6e9ed"/></g><g><path d="m44.01 36.95c0 .01-.01.02-.02.04-.49 1.18-.22 2.53.68 3.44l.77.76-2.13 2.12-2.12 2.12-.76-.76c-.91-.9-2.26-1.17-3.44-.68-.02.01-.03.02-.04.02-1.18.49-1.95 1.63-1.95 2.91v1.08h-3-3v-1.08c0-1.28-.77-2.42-1.95-2.91-.01 0-.02-.01-.04-.02-1.18-.49-2.53-.22-3.44.68l-.76.76-2.12-2.12-2.13-2.12.77-.76c.9-.91 1.17-2.26.68-3.44-.01-.02-.02-.03-.02-.04-.49-1.18-1.63-1.95-2.91-1.95h-1.08v-3-3h1.08c1.28 0 2.42-.77 2.91-1.95 0-.01.01-.02.02-.04.49-1.18.22-2.53-.68-3.44l-.77-.76 2.13-2.12 2.12-2.13.76.77c.91.9 2.26 1.17 3.44.68.02-.01.03-.02.04-.02 1.18-.49 1.95-1.63 1.95-2.91v-1.08h3 3v1.08c0 1.28.77 2.42 1.95 2.91.01 0 .02.01.04.02 1.18.49 2.53.22 3.44-.68l.76-.77 2.12 2.13h.01l2.12 2.12-.77.76c-.9.91-1.17 2.26-.68 3.44.01.02.02.03.02.04.49 1.18 1.63 1.95 2.91 1.95h1.08v3 3h-1.08c-1.28 0-2.42.77-2.91 1.95z" fill="#ffc729"/></g><g><circle cx="32" cy="32" fill="#fcd770" r="10"/></g></g><g><path d="m33 27.184v-2.184h-2v2h-2v3c0 1.654 1.346 3 3 3 .552 0 1 .448 1 1v1h-1c-.552 0-1-.448-1-1v-1h-2v1c0 1.302.839 2.402 2 2.816v2.184h2v-2h2v-3c0-1.654-1.346-3-3-3-.552 0-1-.448-1-1v-1h1c.552 0 1 .448 1 1v1h2v-1c0-1.302-.839-2.402-2-2.816z"/><path d="m32 21c-6.065 0-11 4.935-11 11s4.935 11 11 11 11-4.935 11-11-4.935-11-11-11zm0 20c-4.963 0-9-4.037-9-9s4.037-9 9-9 9 4.037 9 9-4.037 9-9 9z"/><path d="m51 13c0 1.103.897 2 2 2h2c1.103 0 2-.897 2-2 1.103 0 2-.897 2-2v-2c0-1.103-.897-2-2-2 0-1.103-.897-2-2-2h-2c-1.103 0-2 .897-2 2-1.103 0-2 .897-2 2v2c0 1.103.897 2 2 2zm0-4h2v-2h2v2l2 .003v1.997h-2v2h-2v-2h-2z"/><path d="m27 53.184v-4.184h-2v4.184c-1.161.414-2 1.514-2 2.816 0 1.654 1.346 3 3 3s3-1.346 3-3c0-1.302-.839-2.402-2-2.816zm-1 3.816c-.552 0-1-.448-1-1s.448-1 1-1 1 .448 1 1-.448 1-1 1z"/><path d="m39 53.184v-4.184h-2v4.184c-1.161.414-2 1.514-2 2.816 0 1.654 1.346 3 3 3s3-1.346 3-3c0-1.302-.839-2.402-2-2.816zm-1 3.816c-.552 0-1-.448-1-1s.448-1 1-1 1 .448 1 1-.448 1-1 1z"/><path d="m63 32c0-1.654-1.346-3-3-3-1.302 0-2.402.839-2.816 2h-8.184v-3h-2.08c-.873 0-1.651-.521-2.003-1.369-.337-.812-.156-1.734.461-2.352l1.473-1.472-2.122-2.122 3.661-3.661c1.539 1.234 3.488 1.976 5.61 1.976 4.963 0 9-4.037 9-9s-4.037-9-9-9-9 4.037-9 9c0 2.122.742 4.071 1.975 5.611l-3.661 3.661-2.122-2.121-1.472 1.472c-.618.617-1.541.799-2.392.442-.807-.334-1.328-1.112-1.328-1.984v-2.081h-3v-8.184c1.161-.414 2-1.514 2-2.816 0-1.654-1.346-3-3-3s-3 1.346-3 3c0 1.302.839 2.402 2 2.816v8.184h-3v2.081c0 .872-.521 1.65-1.369 2.002-.813.336-1.734.157-2.352-.461l-1.472-1.472-2.122 2.121-4.523-4.523 2.441-2.17c1.524-1.352 2.397-3.298 2.397-5.336 0-1.713-.667-3.323-1.879-4.535-1.085-1.085-2.587-1.707-4.121-1.707-1.478 0-2.926.577-4 1.589-1.074-1.012-2.522-1.589-4-1.589-1.534 0-3.036.622-4.121 1.707-1.212 1.212-1.879 2.822-1.879 4.535 0 2.038.873 3.983 2.396 5.337l7.604 6.759 3.666-3.258 4.606 4.606-2.122 2.122 1.473 1.471c.617.618.798 1.541.442 2.393-.334.807-1.112 1.328-1.985 1.328h-2.08v3h-8.184c-.414-1.161-1.514-2-2.816-2-1.654 0-3 1.346-3 3s1.346 3 3 3c1.302 0 2.402-.839 2.816-2h8.184v3h2.08c.873 0 1.651.521 2.003 1.369.337.812.156 1.734-.461 2.352l-1.473 1.472 2.122 2.122-1.469 1.469-7.802-3.902-9 4.5v5.202c0 4.956 2.754 9.411 7.187 11.627l1.813.907 1.813-.907c4.433-2.216 7.187-6.671 7.187-11.627v-4.17l1.686-1.686 2.121 2.121 1.471-1.471c.617-.616 1.541-.801 2.393-.442.808.333 1.329 1.111 1.329 1.984v2.08h3v8.184c-1.161.414-2 1.514-2 2.816 0 1.654 1.346 3 3 3s3-1.346 3-3c0-1.302-.839-2.402-2-2.816v-8.184h3v-2.08c0-.873.521-1.651 1.369-2.003.813-.335 1.735-.156 2.353.461l1.471 1.471 2.121-2.121 1.634 1.634-3.065 2.452c-.562.448-.883 1.117-.883 1.835 0 1.176.871 2.144 2 2.315v10.036h18v-10.035c1.129-.171 2-1.139 2-2.315 0-.719-.321-1.388-.882-1.836l-10.118-8.094-5.481 4.385-1.791-1.791 2.122-2.122-1.473-1.471c-.617-.618-.798-1.541-.442-2.393.334-.807 1.112-1.328 1.985-1.328h2.08v-3h8.184c.414 1.161 1.514 2 2.816 2 1.654 0 3-1.346 3-3zm-9-29c3.859 0 7 3.141 7 7s-3.141 7-7 7-7-3.141-7-7 3.141-7 7-7zm-22 0c.552 0 1 .448 1 1s-.448 1-1 1-1-.448-1-1 .448-1 1-1zm-27.275 8.085c-1.096-.975-1.725-2.375-1.725-3.843 0-1.179.459-2.287 1.293-3.121.713-.713 1.699-1.121 2.707-1.121s1.994.408 2.707 1.121l1.293 1.293 1.293-1.293c.713-.713 1.699-1.121 2.707-1.121s1.994.408 2.707 1.121c.834.834 1.293 1.942 1.293 3.121 0 1.468-.629 2.868-1.725 3.843l-6.275 5.577zm-.725 21.915c-.552 0-1-.448-1-1s.448-1 1-1 1 .448 1 1-.448 1-1 1zm-1 17.584v-3.966l6-3v16.756c-3.701-1.889-6-5.628-6-9.79zm14 0c0 4.162-2.299 7.901-6 9.79v-16.756l6 3zm15 10.416c-.552 0-1-.448-1-1s.448-1 1-1 1 .448 1 1-.448 1-1 1zm21 0h-2v-4h2zm2 0v-6h-6v6h-4v-8h14v8zm5.869-10.624c.082.065.131.168.131.273 0 .194-.157.351-.351.351h-17.298c-.194 0-.351-.157-.351-.351 0-.105.049-.208.132-.273l8.868-7.096zm-13.869-16.376h-.08c-1.686 0-3.19 1.007-3.849 2.602-.65 1.561-.3 3.341.893 4.535l.057.056-2.828 2.828-.057-.057c-1.193-1.191-2.971-1.542-4.57-.878-1.559.643-2.566 2.148-2.566 3.834v.08h-4v-.08c0-1.686-1.007-3.19-2.602-3.849-1.561-.65-3.342-.301-4.534.893l-.057.057-2.828-2.828.057-.057c1.192-1.193 1.543-2.974.878-4.57-.643-1.559-2.148-2.566-3.834-2.566h-.08v-4h.08c1.686 0 3.19-1.007 3.849-2.602.65-1.561.3-3.341-.893-4.535l-.057-.056 2.828-2.829.058.058c1.191 1.191 2.969 1.542 4.569.878 1.559-.643 2.566-2.147 2.566-3.833v-.081h4v.081c0 1.686 1.007 3.189 2.602 3.848 1.562.649 3.342.299 4.533-.893l.058-.058 2.828 2.829-.057.057c-1.192 1.193-1.543 2.974-.878 4.57.643 1.559 2.148 2.566 3.834 2.566h.08zm12-2c0-.552.448-1 1-1s1 .448 1 1-.448 1-1 1-1-.448-1-1z"/><path d="m53.184 37h-4.184v2h4.184c.414 1.161 1.514 2 2.816 2 1.654 0 3-1.346 3-3s-1.346-3-3-3c-1.302 0-2.402.839-2.816 2zm3.816 1c0 .552-.448 1-1 1s-1-.448-1-1 .448-1 1-1 1 .448 1 1z"/><path d="m53.184 25h-4.184v2h4.184c.414 1.161 1.514 2 2.816 2 1.654 0 3-1.346 3-3s-1.346-3-3-3c-1.302 0-2.402.839-2.816 2zm3.816 1c0 .552-.448 1-1 1s-1-.448-1-1 .448-1 1-1 1 .448 1 1z"/><path d="m37 10.816v4.184h2v-4.184c1.161-.414 2-1.514 2-2.816 0-1.654-1.346-3-3-3s-3 1.346-3 3c0 1.302.839 2.402 2 2.816zm1-3.816c.552 0 1 .448 1 1s-.448 1-1 1-1-.448-1-1 .448-1 1-1z"/><path d="m25 10.816v4.184h2v-4.184c1.161-.414 2-1.514 2-2.816 0-1.654-1.346-3-3-3s-3 1.346-3 3c0 1.302.839 2.402 2 2.816zm1-3.816c.552 0 1 .448 1 1s-.448 1-1 1-1-.448-1-1 .448-1 1-1z"/><path d="m10.816 27h4.184v-2h-4.184c-.414-1.161-1.514-2-2.816-2-1.654 0-3 1.346-3 3s1.346 3 3 3c1.302 0 2.402-.839 2.816-2zm-3.816-1c0-.552.448-1 1-1s1 .448 1 1-.448 1-1 1-1-.448-1-1z"/><path d="m10.816 39h4.184v-2h-4.184c-.414-1.161-1.514-2-2.816-2-1.654 0-3 1.346-3 3s1.346 3 3 3c1.302 0 2.402-.839 2.816-2zm-3.816-1c0-.552.448-1 1-1s1 .448 1 1-.448 1-1 1-1-.448-1-1z"/></g></g></svg>