<svg height="480pt" viewBox="0 0 480 480" width="480pt" xmlns="http://www.w3.org/2000/svg"><path d="m376 280c53.019531 0 96 42.980469 96 96s-42.980469 96-96 96-96-42.980469-96-96 42.980469-96 96-96zm32 144v-40c-.027344-8.824219-7.175781-15.972656-16-16h-16c13.253906 0 24-10.746094 24-24s-10.746094-24-24-24-24 10.746094-24 24 10.746094 24 24 24h-16c-8.824219.027344-15.972656 7.175781-16 16v40zm0 0" fill="#898890"/><path d="m408 384v40h-64v-40c.027344-8.824219 7.175781-15.972656 16-16h32c8.824219.027344 15.972656 7.175781 16 16zm0 0" fill="#ffda44"/><path d="m400 344c0 13.253906-10.746094 24-24 24s-24-10.746094-24-24 10.746094-24 24-24 24 10.746094 24 24zm0 0" fill="#ffda44"/><path d="m336 80v48h-36.71875c-.082031.320312-.242188.640625-.320312.960938l25.917968 25.917968-34 34-25.917968-25.917968c-.320313.078124-.640626.238281-.960938.320312v36.71875h-48v-36.71875c-.320312-.082031-.640625-.242188-.960938-.320312l-25.917968 25.917968-34-34 25.917968-25.917968c-.078124-.320313-.238281-.640626-.320312-.960938h-36.71875v-48h36.71875c.082031-.320312.242188-.640625.320312-.960938l-25.917968-25.917968 34-34 25.917968 25.917968c.320313-.078124.640626-.238281.960938-.320312v-36.71875h48v36.71875c.320312.082031.640625.242188.960938.320312l25.917968-25.917968 34 34-25.917968 25.917968c.078124.320313.238281.640626.320312.960938zm-64 24c0-17.671875-14.328125-32-32-32s-32 14.328125-32 32 14.328125 32 32 32 32-14.328125 32-32zm0 0" fill="#a78966"/><path d="m272 104c0 17.671875-14.328125 32-32 32s-32-14.328125-32-32 14.328125-32 32-32 32 14.328125 32 32zm0 0" fill="#898890"/><path d="m200 376c0 53.019531-42.980469 96-96 96s-96-42.980469-96-96 42.980469-96 96-96 96 42.980469 96 96zm0 0" fill="#ffda44"/><path d="m272 181.246094 13.257812 13.257812c3.121094 3.125 8.1875 3.125 11.308594 0l33.9375-33.9375c3.125-3.121094 3.125-8.1875 0-11.308594l-13.257812-13.257812h18.753906c4.417969 0 8-3.582031 8-8v-48c0-4.417969-3.582031-8-8-8h-18.753906l13.257812-13.257812c3.125-3.121094 3.125-8.1875 0-11.308594l-33.9375-33.9375c-3.121094-3.125-8.1875-3.125-11.308594 0l-13.257812 13.257812v-18.753906c0-4.417969-3.582031-8-8-8h-48c-4.417969 0-8 3.582031-8 8v18.753906l-13.257812-13.257812c-3.121094-3.125-8.1875-3.125-11.308594 0l-33.9375 33.9375c-3.125 3.121094-3.125 8.1875 0 11.308594l13.257812 13.257812h-18.753906c-4.417969 0-8 3.582031-8 8v48c0 4.417969 3.582031 8 8 8h18.753906l-13.257812 13.257812c-3.125 3.121094-3.125 8.1875 0 11.308594l33.9375 33.9375c3.121094 3.125 8.1875 3.125 11.308594 0l13.257812-13.257812v18.753906c0 4.417969 3.582031 8 8 8h48c4.417969 0 8-3.582031 8-8zm-10.089844-25.703125-.910156.34375c-3.023438 1.222656-5 4.15625-5 7.417969v28.695312h-32v-28.695312c-.34375-3.46875-2.597656-6.453126-5.839844-7.730469-3.003906-1.28125-6.488281-.613281-8.800781 1.699219l-20.261719 20.261718-22.625-22.625 20.261719-20.261718c2.214844-2.335938 2.886719-5.734376 1.730469-8.738282 0-.046875-.320313-.863281-.34375-.910156-1.226563-3.023438-4.164063-5.003906-7.425782-5h-28.695312v-32h28.695312c3.46875-.34375 6.453126-2.597656 7.730469-5.839844 1.28125-3.003906.613281-6.488281-1.699219-8.800781l-20.261718-20.269531 22.625-22.625 20.261718 20.261718c2.335938 2.210938 5.734376 2.882813 8.738282 1.730469l.910156-.34375c3.023438-1.222656 5-4.15625 5-7.417969v-28.695312h32v28.695312c.34375 3.46875 2.597656 6.453126 5.839844 7.730469 3.003906 1.28125 6.488281.613281 8.800781-1.699219l20.261719-20.261718 22.625 22.625-20.261719 20.261718c-2.214844 2.335938-2.886719 5.734376-1.730469 8.738282 0 .046875.320313.863281.34375.910156 1.222656 3.023438 4.15625 5 7.417969 5h28.703125v32h-28.695312c-3.46875.34375-6.453126 2.597656-7.730469 5.839844-1.28125 3.003906-.613281 6.488281 1.699219 8.800781l20.261718 20.261719-22.625 22.625-20.261718-20.261719c-2.339844-2.207031-5.734376-2.878906-8.738282-1.722656zm0 0"/><path d="m240 64c-22.089844 0-40 17.910156-40 40s17.910156 40 40 40 40-17.910156 40-40c-.027344-22.082031-17.917969-39.972656-40-40zm0 64c-13.253906 0-24-10.746094-24-24s10.746094-24 24-24 24 10.746094 24 24-10.746094 24-24 24zm0 0"/><path d="m216.800781 406.398438-2.183593 15.839843c16.667968 2.292969 33.570312 2.316407 50.246093.066407l-2.136719-15.855469c-15.242187 2.039062-30.6875 2.023437-45.925781-.050781zm0 0"/><path d="m424 240c-.023438-42.703125-14.875-84.078125-42.015625-117.046875l-12.34375 10.191406c24.777344 30.097657 38.339844 67.867188 38.359375 106.855469zm0 0"/><path d="m110.167969 133.367188-12.351563-10.167969c-27.019531 32.929687-41.796875 74.203125-41.816406 116.800781h16c.019531-38.886719 13.507812-76.566406 38.167969-106.632812zm0 0"/><path d="m104 336c8.835938 0 16 7.164062 16 16h16c-.054688-14.546875-9.914062-27.226562-24-30.863281v-9.136719h-16v9.136719c-15.585938 4.011719-25.753906 18.992187-23.71875 34.957031 2.03125 15.96875 15.625 27.925781 31.71875 27.90625 8.835938 0 16 7.164062 16 16s-7.164062 16-16 16-16-7.164062-16-16h-16c.054688 14.546875 9.914062 27.226562 24 30.863281v9.136719h16v-9.136719c15.585938-4.011719 25.753906-18.992187 23.71875-34.957031-2.03125-15.96875-15.625-27.925781-31.71875-27.90625-8.835938 0-16-7.164062-16-16s7.164062-16 16-16zm0 0"/><path d="m402.152344 362.335938c9.371094-13.289063 7.285156-31.496094-4.851563-42.324219-12.136719-10.824219-30.464843-10.824219-42.601562 0-12.136719 10.828125-14.222657 29.035156-4.851563 42.324219-8.421875 3.929687-13.816406 12.371093-13.847656 21.664062v40c0 4.417969 3.582031 8 8 8h64c4.417969 0 8-3.582031 8-8v-40c-.03125-9.292969-5.425781-17.734375-13.847656-21.664062zm-26.152344-34.335938c8.835938 0 16 7.164062 16 16s-7.164062 16-16 16-16-7.164062-16-16 7.164062-16 16-16zm24 88h-48v-32c0-4.417969 3.582031-8 8-8h32c4.417969 0 8 3.582031 8 8zm0 0"/><path d="m376 272c-57.4375 0-104 46.5625-104 104s46.5625 104 104 104 104-46.5625 104-104c-.066406-57.410156-46.589844-103.933594-104-104zm0 192c-48.601562 0-88-39.398438-88-88s39.398438-88 88-88 88 39.398438 88 88c-.058594 48.578125-39.421875 87.941406-88 88zm0 0"/><path d="m104 272c-57.4375 0-104 46.5625-104 104s46.5625 104 104 104 104-46.5625 104-104c-.066406-57.410156-46.589844-103.933594-104-104zm0 192c-48.601562 0-88-39.398438-88-88s39.398438-88 88-88 88 39.398438 88 88c-.058594 48.578125-39.421875 87.941406-88 88zm0 0"/></svg>