<svg id="Capa_1" enable-background="new 0 0 512 512" height="512" viewBox="0 0 512 512" width="512" xmlns="http://www.w3.org/2000/svg"><g><g><path d="m442.88 61.944v-22.119h-60.61v22.119c0 19.343-8.272 37.762-22.729 50.613-14.457 12.851-22.729 31.27-22.729 50.613v98.891h151.524v-98.891c0-19.343-8.272-37.762-22.729-50.613-14.455-12.851-22.727-31.27-22.727-50.613z" fill="#f1f4f6"/></g><g><path d="m465.609 112.557c-14.457-12.851-22.729-31.27-22.729-50.613v-22.119h-22.224v25.044c0 19.343 8.272 37.762 22.729 50.613 14.457 12.851 22.729 31.27 22.729 50.613v95.965h22.224v-98.89c-.001-19.343-8.272-37.762-22.729-50.613z" fill="#d0e2e7"/></g><g><path d="m23.663 161.045h151.524v60.61h-151.524z" fill="#90dfc3"/></g><g><path d="m23.663 128.72h151.524v32.325h-151.524z" fill="#d0e2e7"/></g><g><path d="m23.663 221.654h151.524v40.407h-151.524z" fill="#f6e781"/></g><g><path d="m148.923 161.045h26.264v60.61h-26.264z" fill="#78d0b1"/></g><g><path d="m148.923 128.72h26.264v32.325h-26.264z" fill="#b4d0d5"/></g><g><path d="m148.923 221.654h26.264v40.407h-26.264z" fill="#f1cb86"/></g><g><g><path d="m175.187 112.557h161.626v149.504h-161.626z" fill="#b1e4f9"/></g><g><path d="m316.61 78.211h-121.22l-20.203 34.346h161.626z" fill="#d0e2e7"/></g><g><path d="m308.528 112.557h28.285v149.504h-28.285z" fill="#90d8f9"/></g><g><path d="m316.61 78.211h-28.285l20.203 34.346h28.285z" fill="#b4d0d5"/></g><g><circle cx="256" cy="221.654" fill="#dd636e" r="40.407"/></g></g><g><path d="m494.398 302.467h-476.796c-5.579 0-10.102-4.523-10.102-10.102v-20.203c0-5.579 4.523-10.102 10.102-10.102h476.797c5.579 0 10.102 4.523 10.102 10.102v20.203c-.001 5.58-4.524 10.102-10.103 10.102z" fill="#c6865c"/></g><g><path d="m494.398 262.061h-36.366c5.579 0 10.102 4.523 10.102 10.102v20.203c0 5.579-4.523 10.102-10.102 10.102h36.366c5.579 0 10.102-4.523 10.102-10.102v-20.203c0-5.579-4.523-10.102-10.102-10.102z" fill="#b16e3d"/></g><g><path d="m468.134 504.5h-424.268c-11.158 0-20.203-9.045-20.203-20.203v-181.83h464.675v181.829c-.001 11.159-9.046 20.204-20.204 20.204z" fill="#f4ddb1"/></g><g><path d="m458.033 302.467v181.829c0 11.158-9.045 20.203-20.203 20.203h30.305c11.158 0 20.203-9.045 20.203-20.203v-181.829z" fill="#efcb84"/></g><g><g><path d="m301.338 362.689c-12.501-12.501-32.688-12.614-45.338-.357-12.651-12.257-32.838-12.144-45.338.357-12.624 12.624-12.624 33.091 0 45.715l45.338 45.338 45.338-45.338c12.624-12.624 12.624-33.091 0-45.715z" fill="#dd636e"/></g><g><path d="m301.338 362.689c-6.021-6.021-13.824-9.159-21.71-9.435.885 3.919 1.368 7.991 1.368 12.178 0 30.405-24.648 55.054-55.054 55.054-1.111 0-2.212-.043-3.307-.108l33.365 33.364 45.338-45.338c12.624-12.624 12.624-33.091 0-45.715z" fill="#da4a54"/></g></g><g><path d="m372.169 7.5h80.813v32.325h-80.813z" fill="#b1e4f9"/></g><g><path d="m431.768 7.5h21.213v32.325h-21.213z" fill="#90d8f9"/></g><g><path d="m495.837 254.634v-91.464c0-21.466-9.202-41.957-25.246-56.218-12.844-11.418-20.211-27.822-20.211-45.008v-14.619h2.602c4.143 0 7.5-3.358 7.5-7.5v-32.325c0-4.142-3.357-7.5-7.5-7.5h-80.813c-4.143 0-7.5 3.358-7.5 7.5v32.325c0 4.142 3.357 7.5 7.5 7.5h2.602v14.619c0 17.186-7.367 33.59-20.211 45.008-3.818 3.394-7.235 7.149-10.246 11.178v-5.572c-.227-1.536.202-1.218-1.035-3.803l-13.555-23.043h7.09c4.143 0 7.5-3.358 7.5-7.5s-3.357-7.5-7.5-7.5h-161.627c-4.143 0-7.5 3.358-7.5 7.5s3.357 7.5 7.5 7.5h7.09l-13.555 23.043c-.148.246-1.069 2.09-1.035 3.803v8.663h-95.58l-28.585-16.198c-3.604-2.043-8.181-.776-10.223 2.827-2.042 3.604-.776 8.181 2.828 10.223l5.554 3.147h-18.018c-4.143 0-7.5 3.358-7.5 7.5v125.914c-9.033.736-16.163 8.309-16.163 17.529v20.203c0 9.22 7.13 16.793 16.163 17.529v174.402c0 15.275 12.428 27.703 27.703 27.703h61.813c4.143 0 7.5-3.358 7.5-7.5s-3.357-7.5-7.5-7.5h-61.813c-7.005 0-12.703-5.699-12.703-12.703v-174.33h449.674v174.33c0 7.004-5.698 12.703-12.703 12.703h-327.413c-4.143 0-7.5 3.358-7.5 7.5s3.357 7.5 7.5 7.5h327.413c15.275 0 27.703-12.428 27.703-27.703v-174.403c9.033-.736 16.163-8.309 16.163-17.529v-20.203c0-9.219-7.13-16.792-16.163-17.528zm-116.168-239.634h65.813v17.325h-65.813zm-67.349 70.711 11.38 19.346h-135.4l11.38-19.346zm-281.157 168.85v-25.407h136.523v25.407zm136.524-40.407h-136.524v-45.609h136.523v45.609zm0-77.934v17.325h-136.524v-17.325zm329.313 156.146c0 1.435-1.167 2.602-2.602 2.602h-476.796c-1.435 0-2.602-1.167-2.602-2.602v-20.203c0-1.435 1.167-2.602 2.602-2.602h375.041c4.143 0 7.5-3.358 7.5-7.5s-3.357-7.5-7.5-7.5h-48.329v-41.347c0-4.142-3.357-7.5-7.5-7.5s-7.5 3.358-7.5 7.5v41.347h-38.546c8.134-8.59 13.139-20.171 13.139-32.907 0-26.416-21.49-47.906-47.906-47.906s-47.906 21.491-47.906 47.906c0 12.736 5.005 24.317 13.139 32.907h-38.546v-134.504h146.627v58.119c0 4.142 3.357 7.5 7.5 7.5s7.5-3.358 7.5-7.5v-15.006c0-17.186 7.367-33.59 20.211-45.007 16.044-14.262 25.246-34.753 25.246-56.219v-14.619h45.609v14.619c0 21.466 9.202 41.957 25.246 56.219 12.844 11.417 20.211 27.822 20.211 45.007v91.391h-53.908c-4.143 0-7.5 3.358-7.5 7.5s3.357 7.5 7.5 7.5h67.47c1.435 0 2.602 1.167 2.602 2.602v20.203zm-273.906-70.712c0-18.145 14.762-32.906 32.906-32.906s32.906 14.762 32.906 32.906c0 18.145-14.762 32.907-32.906 32.907s-32.906-14.762-32.906-32.907z"/><path d="m256 461.242c1.989 0 3.896-.79 5.304-2.197l45.338-45.338c7.521-7.522 11.664-17.523 11.664-28.161s-4.143-20.639-11.664-28.161c-13.666-13.667-35.15-15.268-50.642-4.699-15.487-10.568-36.976-8.967-50.641 4.699-7.522 7.521-11.665 17.522-11.665 28.161 0 10.638 4.143 20.639 11.664 28.161l45.338 45.338c1.408 1.407 3.315 2.197 5.304 2.197zm-47.306-75.696c0-6.631 2.582-12.865 7.271-17.554 4.813-4.813 11.179-7.224 17.55-7.224 6.237 0 12.48 2.313 17.266 6.95 2.908 2.818 7.529 2.818 10.438 0 9.674-9.373 25.292-9.25 34.815.274h.001c4.688 4.689 7.271 10.923 7.271 17.554s-2.582 12.865-7.271 17.554l-40.035 40.036-40.034-40.035c-4.69-4.689-7.272-10.924-7.272-17.555z"/></g></g></svg>