<svg height="512pt" viewBox="-24 0 512 512" width="512pt" xmlns="http://www.w3.org/2000/svg"><path d="m408.351562 456.265625h-134.988281c-8.394531 0-20.222656-4.65625-26.375-10.375l-59.707031-55.585937c-2.066406-1.921876-3.234375-4.613282-3.234375-7.433594v-2.515625c0-5.609375 4.542969-10.152344 10.148437-10.152344h17.855469c2.6875 0 5.273438 1.070313 7.175781 2.972656l42.914063 42.914063c2.828125 2.828125 6.605469 4.386718 10.636719 4.386718 4.027344 0 7.804687-1.558593 10.636718-4.386718l16.125-16.125c2.828126-2.828125 4.386719-6.605469 4.386719-10.636719 0-4.027344-1.5625-7.804687-4.386719-10.632813l-64.625-64.621093c-5.867187-5.863281-17.382812-10.636719-25.675781-10.636719h-54.640625v138.296875l54.953125 52.273437c6.082031 5.785157 17.863281 10.492188 26.261719 10.492188h172.539062c8.394532 0 15.226563-6.832031 15.226563-15.230469v-17.769531c-.003906-8.402344-6.832031-15.234375-15.226563-15.234375zm0 0" fill="#ffb98a"/><path d="m382.007812 432.917969h-18.824218v23.347656h34.003906v-8.160156c0-8.375-6.808594-15.1875-15.179688-15.1875zm0 0" fill="#ffd5b3"/><path d="m399.257812 303.269531c-5.546874-57.425781-54.28125-102.335937-113.585937-102.335937s-108.035156 44.910156-113.578125 102.335937zm0 0" fill="#e6e9ed"/><path d="m246.988281 445.890625c6.148438 5.722656 17.980469 10.375 26.371094 10.375h89.824219v-24.707031h-131.589844zm0 0" fill="#fb8276"/><path d="m433.449219 305.765625c-.898438-1.542969-2.558594-2.496094-4.351563-2.496094h-216.753906v.371094c7.863281.960937 17.402344 5.269531 22.566406 10.433594l64.628906 64.621093c2.824219 2.828126 4.382813 6.605469 4.382813 10.632813 0 4.03125-1.558594 7.808594-4.382813 10.636719l-16.128906 16.125c-2.828125 2.828125-6.605468 4.386718-10.636718 4.386718s-7.804688-1.558593-10.636719-4.386718l-42.914063-42.914063c-1.902344-1.902343-4.484375-2.972656-7.175781-2.972656h-17.851563c-5.605468 0-10.148437 4.542969-10.148437 10.152344v2.515625c0 2.820312 1.167969 5.511718 3.230469 7.433594l44.316406 41.253906h131.589844l70.265625-120.8125c.898437-1.539063.898437-3.441406 0-4.980469zm0 0" fill="#ef5050"/><path d="m83.402344 293.015625h-70.671875c-2.878907 0-5.230469 2.351563-5.230469 5.230469v151.859375c0 2.875 2.351562 5.230469 5.230469 5.230469h70.671875zm0 0" fill="#dd7814"/><path d="m88.632812 282.339844c-2.878906 0-5.230468 2.355468-5.230468 5.230468v173.207032c0 2.878906 2.351562 5.230468 5.230468 5.230468h60.730469c2.875 0 5.230469-2.351562 5.230469-5.230468v-173.207032c0-2.875-2.355469-5.226562-5.230469-5.226562h-60.730469zm0 0" fill="#f7931e"/><path d="m287.34375 83.257812h20.730469c12.835937 0 23.277343 10.335938 23.277343 23.035157 0 12.703125-10.441406 23.039062-23.277343 23.039062h-49.796875c-4.140625 0-7.5 3.355469-7.5 7.5 0 4.140625 3.359375 7.5 7.5 7.5h49.796875c21.105469 0 38.277343-17.0625 38.277343-38.039062 0-20.972657-17.171874-38.035157-38.277343-38.035157h-20.730469c-4.144531 0-7.5 3.359376-7.5 7.5 0 4.140626 3.355469 7.5 7.5 7.5zm0 0"/><path d="m235.925781 83.257812h15.207031c4.140626 0 7.5-3.359374 7.5-7.5 0-4.140624-3.359374-7.5-7.5-7.5h-15.207031c-14.832031 0-26.898437-11.945312-26.898437-26.628906s12.066406-26.628906 26.898437-26.628906h30.351563c4.144531 0 7.5-3.359375 7.5-7.5s-3.355469-7.5-7.5-7.5h-30.351563c-23.101562 0-41.898437 18.675781-41.898437 41.628906s18.796875 41.628906 41.898437 41.628906zm0 0"/><path d="m434.796875 95.457031h-15.449219c-4.140625 0-7.5 3.355469-7.5 7.5 0 4.140625 3.359375 7.5 7.5 7.5h15.449219c8.207031 0 14.886719 6.597657 14.886719 14.710938s-6.679688 14.714843-14.886719 14.714843h-44.425781c-14.480469 0-26.261719 11.710938-26.261719 26.109376v12.085937c0 4.140625 3.359375 7.5 7.5 7.5 4.144531 0 7.5-3.359375 7.5-7.5v-12.085937c0-6.125 5.050781-11.109376 11.261719-11.109376h44.425781c16.480469 0 29.886719-13.332031 29.886719-29.714843 0-16.382813-13.40625-29.710938-29.886719-29.710938zm0 0"/><path d="m429.097656 295.769531h-23.242187c-8.96875-57.871093-59.4375-102.335937-120.183594-102.335937-60.742187 0-111.210937 44.464844-120.179687 102.335937h-3.398438v-8.199219c0-7.019531-5.710938-12.726562-12.730469-12.726562h-60.730469c-6.320312 0-11.5625 4.628906-12.550781 10.671875h-63.351562c-7.019531 0-12.730469 5.710937-12.730469 12.730469v151.859375c0 7.019531 5.710938 12.730469 12.730469 12.730469h63.351562c.988281 6.042968 6.230469 10.671874 12.550781 10.671874h60.730469c7.019531 0 12.730469-5.710937 12.730469-12.730468v-1.558594l42.285156 40.21875c7.527344 7.164062 21.035156 12.5625 31.429688 12.5625h172.542968c12.53125 0 22.722657-10.195312 22.722657-22.730469v-17.773437c0-12.53125-10.191407-22.730469-22.722657-22.730469h-3.664062v-.660156c0-12.511719-10.175781-22.6875-22.679688-22.6875h-6.574218l64.503906-110.90625c2.242188-3.859375 2.242188-8.65625-.011719-12.53125-2.234375-3.832031-6.386719-6.210938-10.828125-6.210938zm-414.097656 4.746094h60.898438v147.320313h-60.898438zm393.351562 163.25c4.257813 0 7.722657 3.46875 7.722657 7.730469v17.773437c0 4.261719-3.464844 7.730469-7.722657 7.730469h-172.542968c-6.515625 0-16.371094-3.9375-21.089844-8.429688l-52.625-50.050781v-79.519531c0-4.140625-3.355469-7.5-7.5-7.5s-7.5 3.359375-7.5 7.5v99.511719h-56.191406v-168.671875h56.191406v33.160156c0 4.140625 3.355469 7.5 7.5 7.5s7.5-3.359375 7.5-7.5v-12.0625h47.144531c6.355469 0 15.871094 3.945312 20.371094 8.441406l64.621094 64.617188c1.414062 1.414062 2.191406 3.308594 2.191406 5.332031 0 2.027344-.777344 3.921875-2.1875 5.332031l-16.125 16.125c-1.414063 1.414063-3.308594 2.191406-5.335937 2.191406-2.054688 0-3.902344-.757812-5.332032-2.191406l-42.914062-42.914062c-3.289063-3.285156-7.835938-5.167969-12.480469-5.167969h-17.855469c-9.730468 0-17.648437 7.917969-17.648437 17.65625v2.511719c0 4.886718 2.050781 9.597656 5.625 12.925781l59.710937 55.585937c7.589844 7.058594 21.125 12.382813 31.480469 12.382813zm-52.667968-24.707031v9.707031h-82.320313c-6.539062 0-16.472656-3.910156-21.261719-8.363281l-1.445312-1.34375zm-121.140625-15-42.152344-39.242188c-.535156-.5-.84375-1.207031-.84375-1.945312v-2.511719c0-1.464844 1.1875-2.65625 2.648437-2.65625h17.855469c.695313 0 1.378907.28125 1.871094.777344l42.914063 42.914062c1 1 2.082031 1.882813 3.222656 2.664063zm147.464843 16.359375c4.234376 0 7.679688 3.449219 7.679688 7.6875v.660156h-19.003906v-8.347656zm-23.136718-16.359375h-73.382813c1.144531-.78125 2.226563-1.664063 3.226563-2.664063l16.128906-16.128906c4.242188-4.246094 6.578125-9.90625 6.578125-15.9375 0-6.027344-2.335937-11.683594-6.582031-15.933594l-62.625-62.625h81.128906c4.140625 0 7.5-3.355469 7.5-7.5 0-4.140625-3.359375-7.5-7.5-7.5h-142.660156c8.820312-49.5625 52.542968-87.335937 104.988281-87.335937 52.449219 0 96.171875 37.773437 104.988281 87.335937h-30.316406c-4.144531 0-7.5 3.359375-7.5 7.5 0 4.144531 3.355469 7.5 7.5 7.5h64.417969zm0 0"/><path d="m117.832031 413.683594c-4.144531 0-7.503906 3.363281-7.503906 7.507812v12.855469c0 4.148437 3.359375 7.507813 7.503906 7.507813s7.503907-3.359376 7.503907-7.507813v-12.855469c0-4.144531-3.359376-7.507812-7.503907-7.507812zm0 0"/><path d="m291.519531 221.21875h-7.027343c-4.144532 0-7.5 3.359375-7.5 7.5 0 4.144531 3.355468 7.5 7.5 7.5h7.027343c4.144531 0 7.5-3.355469 7.5-7.5 0-4.140625-3.355469-7.5-7.5-7.5zm0 0"/><path d="m254.859375 242.160156h-7.027344c-4.144531 0-7.5 3.355469-7.5 7.5 0 4.140625 3.355469 7.5 7.5 7.5h7.027344c4.144531 0 7.5-3.359375 7.5-7.5 0-4.144531-3.359375-7.5-7.5-7.5zm0 0"/><path d="m328.183594 242.160156h-7.027344c-4.144531 0-7.5 3.355469-7.5 7.5 0 4.140625 3.355469 7.5 7.5 7.5h7.027344c4.144531 0 7.5-3.359375 7.5-7.5 0-4.144531-3.359375-7.5-7.5-7.5zm0 0"/><path d="m225.226562 268.082031h-7.03125c-4.140624 0-7.5 3.359375-7.5 7.5s3.359376 7.5 7.5 7.5h7.03125c4.144532 0 7.5-3.359375 7.5-7.5s-3.355468-7.5-7.5-7.5zm0 0"/><path d="m291.519531 268.082031h-7.027343c-4.144532 0-7.5 3.359375-7.5 7.5s3.355468 7.5 7.5 7.5h7.027343c4.144531 0 7.5-3.359375 7.5-7.5s-3.355469-7.5-7.5-7.5zm0 0"/><path d="m365.316406 275.582031c0-4.140625-3.355468-7.5-7.5-7.5h-7.03125c-4.140625 0-7.5 3.359375-7.5 7.5s3.359375 7.5 7.5 7.5h7.03125c4.144532 0 7.5-3.355469 7.5-7.5zm0 0"/></svg>